<svg class="index-logo" xmlns="http://www.w3.org/2000/svg" width="129" height="37" viewBox="0 0 129 37">
    <g fill="#fff" fill-rule="evenodd">
        <path d="M18.114 21.14l2.075 3.529-5.178 8.823h26.956L44.03 37H8.76z"/>
        <path d="M18.132 7.023l9.315 15.883h-4.15L18.119 14.1 4.611 37H.5z"/>
        <path d="M39.894 29.968H21.222l2.077-3.538h10.357L20.206 3.498 22.263 0z"/>
        <path fill-rule="nonzero" d="M72.421 28.052L63.72 17.534 71.8 9.677c.35-.342.52-.708.52-1.118 0-.83-.728-1.559-1.558-1.559-.545 0-.912.254-1.243.542L56.717 20.406V8.592c0-.878-.729-1.592-1.624-1.592-.863 0-1.593.729-1.593 1.592v20.587c0 .863.73 1.592 1.593 1.592.895 0 1.624-.714 1.624-1.592V24.33l4.72-4.625 8.486 10.358c.336.47.775.708 1.306.708.88 0 1.625-.729 1.625-1.592 0-.516-.206-.845-.433-1.127zm18.404-6.421c0-4.397-2.85-8.848-8.294-8.848-4.8 0-8.561 3.986-8.561 9.075v.066c0 5.174 3.824 9.076 8.894 9.076 2.702 0 4.77-.81 6.694-2.62.322-.276.5-.642.5-1.031 0-.752-.64-1.364-1.426-1.364-.427 0-.73.206-.932.37-1.425 1.286-2.94 1.885-4.77 1.885-3.027 0-5.3-2.055-5.74-5.147h12.143c.823 0 1.492-.657 1.492-1.462zm-8.36-6.153c3.354 0 4.861 2.62 5.177 5.18H77.191c.433-3.066 2.565-5.18 5.273-5.18zm27.264 6.153c0-4.397-2.85-8.848-8.294-8.848-4.8 0-8.56 3.986-8.56 9.075v.066c0 5.174 3.823 9.076 8.893 9.076 2.702 0 4.77-.81 6.694-2.62.322-.276.5-.642.5-1.031 0-.752-.64-1.364-1.427-1.364-.427 0-.73.206-.931.37-1.426 1.286-2.941 1.885-4.77 1.885-3.026 0-5.298-2.055-5.74-5.147h12.142c.823 0 1.493-.657 1.493-1.462zm-8.36-6.153c3.353 0 4.86 2.62 5.177 5.18H96.094c.434-3.066 2.566-5.18 5.275-5.18zm20.237-2.695c-2.345 0-4.228.894-5.61 2.661v-.904c0-.875-.7-1.561-1.592-1.561-.859 0-1.558.7-1.558 1.561v14.671c0 .875.699 1.56 1.591 1.56.888 0 1.558-.67 1.558-1.56V20.65c0-2.948 2.006-5.007 4.877-5.007 2.802 0 4.475 1.798 4.475 4.81v8.758c0 .875.7 1.56 1.593 1.56.875 0 1.56-.685 1.56-1.56v-9.378c0-4.283-2.706-7.05-6.894-7.05z"/>
    </g>
</svg>
